<?xml version="1.0" encoding="UTF-8" standalone="no"?>
<!-- Created with Inkscape (http://www.inkscape.org/) -->

<svg xmlns:svg="http://www.w3.org/2000/svg" xmlns="http://www.w3.org/2000/svg" version="1.1" width="261" height="87" id="svg2">
  <defs id="defs4"></defs>
  <g transform="translate(0,-965.36218)" id="layer1">
    <g transform="scale(1.0953907,0.91291629)" id="text2816" style="font-variant: normal; fill: #000; fill-opacity: 1; stroke: none; -inkscape-font-specification: Bitstream Vera Sans Bold; font-family: DejaVu Sans Mono; font-size: 24.2631px; font-style: normal; font-weight: bold; font-stretch: normal">
      <path d="m 19.334653,1097.2555 0,-2.8908 c -3.443605,0.032 -5.813045,0.474 -7.108328,1.3269 -1.263713,0.8215 -1.974545,2.2747 -2.132499,4.3598 0.47388,-0.9477 1.279489,-1.627 2.416832,-2.0377 1.168913,-0.4423 2.764336,-0.6634 4.786274,-0.6635 0.221132,10e-5 0.552854,-0.016 0.995166,-0.047 0.473871,-0.032 0.821389,-0.047 1.042555,-0.047 m 13.079324,10.4729 -11.941992,-31.2766 0,31.4662 c 1.200498,-0.4739 2.258848,-0.8214 3.175054,-1.0426 0.916161,-0.2211 1.737567,-0.3317 2.46422,-0.3317 0.916159,0 1.848139,0.095 2.795943,0.2843 0.979341,0.158 2.148265,0.4581 3.506775,0.9004 m -0.852999,-22.794 11.941991,31.0397 -0.04739,-31.2293 c -0.97941,0.4108 -1.958779,0.7267 -2.938109,0.9478 -0.979407,0.1896 -1.990369,0.2844 -3.032886,0.2843 -0.91622,10e-5 -1.863996,-0.079 -2.843332,-0.2369 -0.979402,-0.1895 -2.006159,-0.4581 -3.080275,-0.8056 m 5.212774,-15.354 c 0.82137,1.0426 1.800739,1.864 2.938109,2.4642 1.137293,0.5687 2.337809,0.853 3.601553,0.853 1.042512,0 2.037677,-0.2053 2.985498,-0.6161 0.947731,-0.4422 1.753341,-1.0583 2.416831,-1.8481 -0.252787,0.095 -0.552916,0.158 -0.900388,0.1895 -0.315972,1e-4 -0.78986,1e-4 -1.421666,0 -0.947821,1e-4 -1.958782,-0.3158 -3.032886,-0.9477 -1.042596,-0.6318 -2.290501,-1.6744 -3.74372,-3.1277 l -2.843331,3.0329 m 3.885886,48.8105 -17.344321,-45.3985 c -2.274685,-5.813 -4.280811,-9.5725 -6.018385,-11.2786 -1.706013,-1.7375 -3.870102,-2.6063 -6.492273,-2.6064 -2.2114871,10e-5 -4.1228357,0.5372 -5.7340515,1.6113 -1.6112231,1.0426 -2.8433321,2.5748 -3.6963308,4.5967 1.2637017,-1.4216 2.5274032,-2.4326 3.7911085,-3.0329 1.2636978,-0.6318 2.6853621,-0.9477 4.264997,-0.9478 4.2333918,10e-5 7.8981268,4.0281 10.9942148,12.0842 0.157943,0.4107 0.284314,0.7267 0.37911,0.9477 l 17.344322,45.0195 c 0.126333,0.2843 0.300092,0.7424 0.521277,1.3742 1.326849,3.6648 2.906476,6.208 4.738885,7.6296 l 2.132499,-1.7533 c -1.579671,-1.1374 -3.175094,-3.8069 -4.786274,-8.0088 -0.03163,-0.1263 -0.06322,-0.2053 -0.09478,-0.2369 m -17.912987,9.999 2.795942,-2.322 c -1.421688,-1.1373 -2.953926,-1.9903 -4.596719,-2.559 -1.611239,-0.5687 -3.348829,-0.853 -5.212774,-0.853 -3.885897,0 -7.0609467,1.0583 -9.52516,3.175 -2.4326302,2.0852 -3.648943,4.7547 -3.6489419,8.0088 l 0,0.1895 c 0.473887,-2.6538 1.6901998,-4.6915 3.6489419,-6.1131 1.9903252,-1.4217 4.549321,-2.1325 7.676995,-2.1325 1.421651,0 2.843316,0.2211 4.264997,0.6634 1.45324,0.4107 2.985478,1.0584 4.596719,1.9429 m -3.411998,-29.9971 -2.037721,0 c -2.495826,0 -4.296601,0.3317 -5.402329,0.9952 -1.074157,0.6634 -1.61123,1.7218 -1.611221,3.175 l 0,2.3221 -1.137333,0 0,-2.7012 c -7.6e-6,-4.107 0.7582133,-6.9503 2.274665,-8.53 1.516432,-1.6112 4.154409,-2.4168 7.913939,-2.4168 l 0,-17.4865 c -1.484867,-4.2334 -2.985513,-7.1873 -4.501941,-8.8617 -1.484863,-1.6744 -3.31723,-2.5116 -5.4971075,-2.5116 -2.3062632,0 -4.2018156,0.6477 -5.6866627,1.9429 -1.453259,1.2954 -2.1798873,2.9224 -2.1798873,4.8811 0,1.2953 0.3001291,2.5116 0.9003882,3.6489 0.6002573,1.1058 1.4690522,2.0852 2.6063871,2.9381 l -0.7108329,0.7582 c -1.421667,-1.1688 -2.4800171,-2.4167 -3.1750533,-3.7437 C 0.36331561,1071.476 1.4131752e-6,1070.0385 -5.5879354e-8,1068.4904 1.4131752e-6,1065.4576 1.1847216,1062.867 3.5541641,1060.7187 c 2.4010308,-2.1799 5.3233407,-3.2698 8.7669379,-3.2699 3.190836,1e-4 5.749832,0.8373 7.676995,2.5116 1.927126,1.6745 3.996438,5.4024 6.20794,11.1838 l 4.691497,12.3211 c 1.295264,0.4739 2.495781,0.8373 3.601553,1.09 1.105705,0.2527 2.10087,0.3791 2.985498,0.3791 1.010925,0 2.00609,-0.1264 2.985497,-0.3791 0.97933,-0.2527 1.990291,-0.6161 3.032887,-1.09 l 0,-9.5252 c -1.453299,10e-5 -2.795982,-0.2684 -4.028053,-0.8056 -1.232147,-0.5686 -2.448459,-1.469 -3.648941,-2.7011 l -1.753388,1.2795 -0.568666,-0.7582 c 1.548002,-1.2637 2.922277,-2.5906 4.12283,-3.9807 1.232073,-1.39 2.385201,-2.9539 3.459387,-4.6915 2.274623,2.875 3.85425,4.6915 4.738885,5.4497 0.884547,0.7267 1.690157,1.09 2.416832,1.09 0.884544,0 1.658561,-0.4897 2.322054,-1.4691 0.694986,-0.9793 1.342633,-2.5589 1.942943,-4.7389 l 1.089943,0.2843 c -0.85305,3.2541 -2.006178,5.7815 -3.459386,7.5823 -1.453306,1.7692 -3.285673,2.8907 -5.497107,3.3646 l 0.04739,45.2563 c -4.4e-5,0.032 0.04734,0.1264 0.142166,0.2844 1.326843,2.5906 2.40099,4.1702 3.222442,4.7388 l 4.264997,-3.7911 0.663444,0.7583 -9.667326,8.7669 c -1.200559,-0.8846 -2.306297,-2.0693 -3.31722,-3.5542 -0.979407,-1.5164 -1.879795,-3.3804 -2.701165,-5.5919 l -4.170219,-11.5154 c -1.326918,-0.4739 -2.574824,-0.8372 -3.74372,-1.09 -1.137359,-0.2527 -2.132524,-0.3791 -2.985498,-0.3791 -0.979393,0 -1.942966,0.1264 -2.89072,0.3791 -0.947798,0.2212 -1.958759,0.5845 -3.032887,1.09 l 0,10.2833 c 1.579608,0.2528 3.032865,0.7109 4.359775,1.3743 1.326863,0.6319 2.622158,1.5007 3.885886,2.6064 l 3.31722,-2.7486 0.568666,0.8057 -9.667326,8.3404 c -1.674426,-0.9794 -3.285646,-1.6902 -4.833663,-2.1325 -1.548051,-0.4739 -3.111882,-0.7108 -4.691497,-0.7108 -3.064488,0 -5.5129099,0.8214 -7.3452726,2.4642 -1.8323718,1.6428 -2.7485554,3.8069 -2.7485536,6.4923 -1.8e-6,3.4119 1.2952923,6.3027 3.8858862,8.6721 2.6221749,2.3694 6.049965,3.7121 10.283382,4.0281 l 0,0.9478 c -4.833675,-0.2844 -8.6721683,-1.8482 -11.5154923,-4.6915 -2.8117404,-2.8118 -4.2176084,-6.4449 -4.2176081,-10.8995 -3e-7,-4.2966 1.484849,-7.8191 4.4545524,-10.5677 2.9696939,-2.7801 6.792391,-4.1702 11.468103,-4.1702 0.03158,0 0.126354,0 0.284333,0 0.473872,0.063 0.931964,0.095 1.374277,0.095 l 0,-20.9933" id="path2895" style="fill: #000; -inkscape-font-specification: Blackletter686 BT; font-family: Blackletter686 BT; font-size: 97.0524px; font-weight: normal"></path>
      <path d="m 65.159678,1112.2777 c 0.979357,-0.9161 1.974522,-1.8323 2.985498,-2.7485 1.042539,-0.9162 2.116685,-1.8798 3.222442,-2.8907 l -6.20794,-8.0561 0,13.6953 m 0,8.0561 4.786274,3.649 c 0.157947,-0.1264 0.473872,-0.3791 0.947777,-0.7582 1.421647,-1.169 2.51159,-2.0062 3.269831,-2.5117 l 0.568667,0.8057 c -1.611241,1.2321 -3.254053,2.5432 -4.928441,3.9332 -1.674421,1.3585 -3.317233,2.7644 -4.928441,4.2176 l -0.995166,0 -7.392662,-5.8288 -2.511609,2.2273 -0.568666,-0.7582 4.075441,-3.6016 0,-23.884 -0.663444,0 0,-1.1847 0.758222,0 c 2.211474,0 4.359766,-0.4265 6.444884,-1.2795 2.11669,-0.8845 4.170205,-2.1956 6.160552,-3.9333 l 7.86655,11.0416 c -2.243095,1.8008 -4.438777,3.649 -6.587051,5.5445 -2.148311,1.864 -4.249215,3.807 -6.302718,5.8289 l 0,6.4922 m -3.601553,1.5639 0,-24.5475 c -0.537081,0.095 -1.058358,0.1738 -1.563832,0.237 -0.473895,0.032 -0.931987,0.047 -1.374277,0.047 l 0,24.4526 -1.23211,1.1847 6.966161,5.4024 2.748554,-2.3221 -5.544496,-4.4545 m 2.985498,-25.7322 7.582217,9.62 2.511609,-2.1325 -6.587051,-9.2409 c -0.410717,0.316 -0.884605,0.6161 -1.421666,0.9004 -0.505493,0.2528 -1.200529,0.5371 -2.085109,0.853" id="path2897" style="fill: #000; -inkscape-font-specification: Blackletter686 BT; font-family: Blackletter686 BT; font-size: 97.0524px; font-weight: normal"></path>
      <path d="m 88.285438,1129.6694 c -1.10575,-1.0109 -2.195692,-1.9429 -3.269831,-2.7959 -1.074154,-0.853 -2.132504,-1.6428 -3.175053,-2.3694 l -2.795942,2.5116 -0.758222,-0.853 4.644108,-4.0755 0,-22.3201 c -0.884597,0 -1.816577,0.095 -2.795943,0.2843 -0.947779,0.158 -1.95874,0.4107 -3.032886,0.7582 l 0,-0.7582 c 0,-1.706 0.489684,-3.2698 1.469054,-4.6915 0.979367,-1.4532 2.432624,-2.7327 4.359775,-3.8385 l 0,-6.4923 -1.089944,0.1896 0,-1.0899 c 1.958733,-0.5055 3.775304,-1.4375 5.449719,-2.796 1.674394,-1.39 3.222428,-3.2066 4.644107,-5.4497 l 0.995166,0.5687 c -0.347533,0.6319 -0.726644,1.2479 -1.137332,1.8481 -0.379125,0.5687 -0.774032,1.1216 -1.184722,1.6586 l 0,12.2264 1.232111,0 c 1.453242,0 2.764332,-0.079 3.933275,-0.237 1.200497,-0.1579 2.29044,-0.3949 3.269831,-0.7108 -2.2e-5,2.9065 -0.695058,5.0548 -2.08511,6.4449 -1.358499,1.3901 -3.475199,2.0851 -6.350107,2.0851 l 0,21.325 3.080276,3.0328 3.411998,-2.7959 0.663444,0.7582 c -1.863981,1.6744 -4.707309,4.2018 -8.529994,7.5822 l -0.947778,0 m 0.568667,-1.1847 2.132498,-1.9429 -3.791108,-3.6016 0,-24.4526 2.89072,0 c 2.14828,0 3.775295,-0.2843 4.881052,-0.853 1.105721,-0.5687 1.879738,-1.5164 2.322054,-2.8434 -0.663464,0.2212 -1.390092,0.3792 -2.179887,0.4739 -0.758239,0.095 -1.721812,0.1422 -2.890721,0.1422 l -5.023218,0 0,-12.6528 c -0.537083,0.4107 -1.05836,0.774 -1.563832,1.0899 -0.50549,0.2844 -1.01097,0.5371 -1.516444,0.7582 l -0.04739,10.8047 c -1.516448,0.1264 -2.795946,0.5371 -3.838497,1.2321 -1.010964,0.6951 -1.658611,1.6113 -1.942943,2.7486 0.63185,-0.2527 1.405867,-0.4423 2.322054,-0.5687 0.91618,-0.1579 2.069308,-0.2685 3.459386,-0.3317 l 0,24.0735 -1.23211,1.1847 c 1.674399,1.2637 2.922304,2.2273 3.74372,2.8908 0.821396,0.6634 1.579617,1.2795 2.274665,1.8481" id="path2899" style="fill: #000; -inkscape-font-specification: Blackletter686 BT; font-family: Blackletter686 BT; font-size: 97.0524px; font-weight: normal"></path>
      <path d="m 129.51375,1069.6752 c -0.0948,0 -0.26857,0.016 -0.52128,0.047 -0.75825,0.095 -1.29533,0.1423 -1.61122,0.1422 -1.4217,10e-5 -2.79597,-0.3159 -4.12283,-0.9478 -1.32692,-0.6318 -2.82756,-1.7059 -4.50195,-3.2224 -0.34753,-0.2843 -0.83722,-0.7108 -1.46905,-1.2795 -3.69635,-3.2856 -6.80821,-4.9284 -9.3356,-4.9285 -1.29531,10e-5 -2.52742,0.2529 -3.69633,0.7583 -1.16894,0.4739 -2.25888,1.1848 -3.26984,2.1325 0.72663,-0.3159 1.45326,-0.5528 2.17989,-0.7109 0.72662,-0.1579 1.42166,-0.2368 2.08511,-0.2369 1.48484,10e-5 2.82753,0.2844 4.02805,0.853 1.20051,0.5687 2.82752,1.8008 4.88106,3.6963 0.12635,0.1265 0.3159,0.316 0.56866,0.5687 3.60153,3.3805 6.61862,5.0707 9.05127,5.0706 1.01094,10e-5 1.97451,-0.1579 2.89072,-0.4739 0.94775,-0.3159 1.89553,-0.8055 2.84334,-1.469 m 6.01838,-4.8337 c -1.54807,2.5275 -3.36464,4.4862 -5.44972,5.8762 -2.05355,1.3901 -4.18604,2.0852 -6.39749,2.0851 -1.04258,10e-5 -2.05355,-0.1737 -3.03289,-0.5213 -0.97939,-0.3474 -1.87978,-0.8213 -2.70117,-1.4216 -1.48487,-1.0741 -2.85914,-2.1799 -4.12283,-3.3172 -1.26371,-1.1689 -1.89556,-1.8166 -1.89555,-1.943 -1e-5,-0.3159 -0.77403,-0.8845 -2.32205,-1.706 -1.51646,-0.8529 -3.00131,-1.2794 -4.45456,-1.2795 -2.1483,10e-5 -3.91748,0.6951 -5.307548,2.0851 -1.390075,1.3902 -2.08511,3.1435 -2.08511,5.2602 0,1.9588 0.616054,3.6332 1.848165,5.0232 1.263703,1.3901 3.048683,2.4011 5.354943,3.0329 l -0.28434,0.9952 c -2.87492,-0.853 -4.960031,-2.0061 -6.255324,-3.4594 -1.263703,-1.4848 -1.895553,-3.412 -1.895554,-5.7815 10e-7,-3.2539 1.279498,-6.1131 3.838498,-8.5774 2.59058,-2.4957 5.60767,-3.7436 9.05127,-3.7437 3.63313,10e-5 7.36105,1.8483 11.18377,5.5445 1.29527,1.2322 2.29044,2.1326 2.9855,2.7012 0.91616,0.7267 1.86393,1.3111 2.84333,1.7534 0.97934,0.4423 1.81654,0.6635 2.51161,0.6634 0.97934,10e-5 1.94291,-0.3158 2.89072,-0.9478 0.94774,-0.6633 1.84813,-1.6427 2.70116,-2.9381 l 0.99517,0.6161 m -14.73793,33.267 0,19.0977 c 0.37908,-0.063 0.77399,-0.1896 1.18472,-0.3791 0.41068,-0.1896 0.85297,-0.4423 1.32689,-0.7583 l 0,-39.8066 c -0.82144,0.4424 -1.45329,1.09 -1.89556,1.9429 -0.41073,0.8531 -0.61608,1.8956 -0.61605,3.1277 l 0,0.095 0,13.6954 c -0.34755,0 -0.69506,0.016 -1.04256,0.047 -0.34754,0.032 -0.5213,0.047 -0.52128,0.047 -3.0329,1e-4 -5.21279,0.4266 -6.53966,1.2795 -1.29531,0.8531 -1.99034,2.3221 -2.08511,4.4072 0.44228,-0.9793 1.26369,-1.6902 2.46422,-2.1325 1.2321,-0.4423 2.95389,-0.6634 5.16539,-0.6634 l 2.559,0 m -1.2795,1.1847 -2.1325,0 c -2.24309,0 -3.8859,0.3317 -4.92844,0.9952 -1.04257,0.6634 -1.56385,1.7218 -1.56384,3.175 l 0,2.3221 -1.18472,0 0,-2.7012 c -1e-5,-4.107 0.72662,-6.9661 2.17989,-8.5774 1.48484,-1.6112 4.02804,-2.4168 7.62961,-2.4168 l 0,-9.9991 c -3e-5,-2.6537 0.61603,-4.6282 1.84816,-5.9236 1.26368,-1.2952 3.36458,-2.1324 6.30272,-2.5116 l 0,1.09 -0.99517,0.1895 0,34.12 c -3e-5,3.3488 -0.56869,5.6867 -1.706,7.0135 -1.10576,1.2953 -3.17507,2.2273 -6.20794,2.796 l 0,-1.1373 0.75823,-0.1896 0,-18.2447 m 11.13638,-22.5097 0.0474,39.3801 c 0.41067,-0.095 0.82137,-0.2369 1.23211,-0.4265 0.44226,-0.1895 0.88455,-0.4265 1.32688,-0.7108 l 0.0474,-43.503 c -0.85303,0.4424 -1.51647,1.1058 -1.99033,1.9903 -0.44233,0.8531 -0.66348,1.8641 -0.66344,3.0329 l 0,0.237 m -1.13733,0.5686 c -4e-5,-2.6537 0.61602,-4.6282 1.84816,-5.9236 1.26367,-1.2952 3.36457,-2.1324 6.30272,-2.5116 l 0,1.0426 -0.99517,0.1895 0,37.8637 c -4e-5,3.3489 -0.5687,5.7025 -1.706,7.061 -1.13737,1.3269 -3.20668,2.2747 -6.20794,2.8433 l 0,-1.2795 0.75823,-0.1895 0,-39.0959 m 2.98549,51.0378 2.46422,-2.0377 c -1.89559,-1.4848 -3.74375,-2.559 -5.54449,-3.2224 -1.76922,-0.695 -3.64897,-1.0426 -5.63928,-1.0426 -2.33787,0 -4.37559,0.4265 -6.11316,1.2795 -1.70602,0.853 -3.31724,2.2431 -4.83366,4.1702 l 0.28433,0.1896 c 1.26369,-0.9794 2.62217,-1.7218 4.07544,-2.2273 1.48483,-0.537 2.96968,-0.8056 4.45456,-0.8056 1.83234,0 3.53834,0.2686 5.11799,0.8056 1.61119,0.5055 3.52254,1.4691 5.73405,2.8907 m 13.03194,22.0359 0.18955,0.2843 c 1.10569,-0.5687 1.89551,-1.2953 2.36945,-2.1799 0.47383,-0.853 0.71078,-1.9745 0.71083,-3.3646 -5e-5,-0.853 -0.2212,-1.7692 -0.66344,-2.7486 -0.41076,-0.9793 -1.05841,-2.0061 -1.94295,-3.0802 l -0.37911,0.2369 c 0.50543,1.1373 0.86875,2.1957 1.08995,3.1751 0.25269,0.9793 0.37906,1.9271 0.37911,2.8433 -5e-5,0.853 -0.14222,1.6586 -0.4265,2.4168 -0.28439,0.7898 -0.72668,1.5954 -1.32689,2.4169 m -1.75339,-42.9817 -3.22244,0 0,6.3027 3.22244,0 0,-6.3027 m 0,-8.5774 -1.75339,-1.5165 -1.46905,1.1374 0,7.7717 3.22244,0 0,-7.3926 m 4.265,26.1112 0,-25.2108 1.23211,-1.3269 c -0.69509,-0.1895 -1.39013,-0.4897 -2.08511,-0.9004 -0.66349,-0.4423 -1.57968,-1.2163 -2.74856,-2.3221 l -1.51644,1.4217 2.03772,1.943 0,28.6228 c 0.34747,-0.3475 0.75818,-0.6792 1.23211,-0.9951 0.47384,-0.3476 1.0899,-0.7583 1.84817,-1.2322 m -7.677,-57.0561 c 0.41066,-0.1895 0.77398,-0.3317 1.08995,-0.4265 0.31588,-0.095 0.6318,-0.1421 0.94777,-0.1422 0.78977,10e-5 1.54799,0.2528 2.27467,0.7582 0.75817,0.474 1.53219,1.2164 2.32205,2.2273 l 1.42167,2.0377 c 0.56861,-0.3474 1.08989,-0.7424 1.56383,-1.1847 0.47384,-0.4422 0.90034,-0.9161 1.2795,-1.4217 -1.23216,-1.7059 -2.32211,-2.8906 -3.26983,-3.5541 -0.91624,-0.6634 -1.8956,-0.9951 -2.93811,-0.9952 -1.01101,10e-5 -1.9114,0.2212 -2.70117,0.6634 -0.75826,0.4424 -1.4217,1.1216 -1.99033,2.0378 m -0.94777,54.7341 0,-52.5069 c -5e-5,-2.4009 0.61601,-4.3123 1.84816,-5.734 1.23207,-1.4216 2.87488,-2.1324 4.92844,-2.1325 1.10569,10e-5 2.17984,0.3318 3.22244,0.9952 1.0741,0.6319 2.55895,1.9588 4.45456,3.9806 l 2.1325,-2.4168 0.75822,0.7582 c -1.67447,1.9904 -3.2225,3.6806 -4.64411,5.0706 -1.39013,1.3901 -2.68542,2.5117 -3.88589,3.3646 l -2.03772,-2.9855 c -0.6319,-0.8529 -1.29534,-1.5006 -1.99033,-1.9429 -0.69508,-0.4738 -1.35853,-0.7108 -1.99033,-0.7108 -0.22119,0 -0.45814,0.047 -0.71083,0.1421 -0.2212,0.095 -0.53712,0.2844 -0.94778,0.5687 l 0,27.9594 6.11316,-5.3549 c 0.66339,0.9478 1.37423,1.8324 2.1325,2.6537 0.75817,0.7899 1.57957,1.4849 2.46422,2.0852 0.66339,-0.1264 1.27944,-0.3159 1.84817,-0.5687 0.56861,-0.2843 1.10568,-0.6476 1.61122,-1.09 l 0.4265,0.9952 -3.79111,2.6064 0,24.9739 1.65861,0 0,1.1374 c -2.7802,0.4107 -4.99168,1.3584 -6.63444,2.8433 -1.61127,1.4848 -2.41688,3.254 -2.41683,5.3075 -5e-5,1.7376 1.24785,3.7753 3.74372,6.1132 2.49576,2.3378 3.74366,4.4703 3.74372,6.3975 -6e-5,1.706 -0.77408,3.2224 -2.32206,4.5493 -1.51649,1.3269 -3.66479,2.3379 -6.44488,3.0329 l -0.37911,-0.9478 c 1.39002,-0.8846 2.36939,-1.8008 2.93811,-2.7485 0.56861,-0.9478 0.85295,-2.1009 0.85299,-3.4594 -4e-5,-1.3269 -0.55291,-3.3172 -1.65861,-5.971 -1.10578,-2.6222 -1.65865,-4.7547 -1.65861,-6.3975 -4e-5,-0.6318 0.0789,-1.3269 0.23695,-2.0851 0.18951,-0.7582 0.44225,-1.5796 0.75822,-2.4642 l 0,-13.7902 -3.22244,0 0,6.7292 0.90039,0 0,0.9478 -8.86172,7.2979 c -2.21151,-1.4849 -4.15445,-2.5116 -5.82883,-3.0803 -1.64284,-0.6002 -3.34884,-0.9004 -5.11799,-0.9004 -3.25406,0 -5.93943,0.9636 -8.05611,2.8908 -2.08512,1.9587 -3.12768,4.4861 -3.12766,7.5822 -2e-5,3.5383 1.21629,6.3975 3.64894,8.5774 2.43261,2.2114 5.74982,3.4593 9.95166,3.7437 l 0,0.9951 c -4.83369,-0.3475 -8.53002,-1.7534 -11.089,-4.2176 -2.55901,-2.4326 -3.8385,-5.7814 -3.83849,-10.0464 -1e-5,-4.5493 1.51643,-8.3246 4.54933,-11.3259 3.06446,-3.0013 6.88715,-4.502 11.4681,-4.502 2.14827,0 4.23337,0.3949 6.25533,1.1847 2.05348,0.7899 4.107,2.0062 6.16055,3.649 l 1.84817,-1.7534" id="path2901" style="fill: #000; -inkscape-font-specification: Blackletter686 BT; font-family: Blackletter686 BT; font-size: 97.0524px; font-weight: normal"></path>
      <path d="m 164.58149,1123.7458 0,-16.207 -3.22244,0.095 0,15.8279 -0.47389,0.4739 c 0.75822,0.7898 1.42166,1.5638 1.99033,2.322 0.56866,0.7267 1.10573,1.5007 1.61122,2.3221 l 2.22728,-2.4168 -2.1325,-2.4169 m -0.0948,-24.0735 3.17506,-2.2273 c -1.07416,-0.1579 -2.08512,-0.4422 -3.03289,-0.853 -0.91619,-0.4106 -1.80078,-0.9793 -2.65378,-1.706 l -2.03772,1.4691 4.54933,3.3172 m 12.03677,23.4575 0,-23.1732 2.03772,-2.1325 -0.28433,0 c -0.91621,10e-5 -1.81659,-0.2369 -2.70116,-0.7108 -0.88462,-0.4739 -1.86398,-1.2479 -2.93811,-2.3221 l -1.94295,1.4691 3.12767,2.3221 0,24.263 c -2e-5,1.3269 0.18954,2.4327 0.56866,3.3173 0.3791,0.8846 0.99515,1.6586 1.84817,2.322 l 2.60639,-2.5116 -2.32206,-2.8433 m -8.34044,-0.853 1.13734,1.3743 1.37427,-1.3743 0.56867,0.7582 c -0.75824,0.7582 -1.57964,1.5954 -2.46422,2.5116 -0.8846,0.8846 -2.1641,2.2589 -3.8385,4.1228 l -1.04255,0 c -0.53708,-0.9477 -1.13734,-1.8323 -1.80078,-2.6537 -0.63186,-0.853 -1.32689,-1.6586 -2.08511,-2.4169 l -3.12766,2.6064 -0.56867,-0.853 3.98066,-3.5068 0,-15.2118 -0.853,0 0,-0.9004 0.94778,0 c 1.76918,10e-5 3.33301,-0.1263 4.6915,-0.3791 1.39006,-0.2527 2.60637,-0.6318 3.64894,-1.1373 -0.53709,-0.8214 -1.40588,-1.7534 -2.60639,-2.7959 -1.20052,-1.0426 -3.63315,-2.8749 -7.29788,-5.4972 l 0,-0.9477 6.01838,-4.5494 c 0.47388,0.474 1.05835,1.1216 1.75339,1.943 1.26369,1.5165 2.25886,2.3221 2.9855,2.4168 l 5.44972,-4.3598 c 0.7582,0.6319 1.65859,1.5481 2.70116,2.7486 1.04253,1.2005 1.89553,1.8008 2.559,1.8008 0.37909,0 0.77399,-0.095 1.18472,-0.2844 0.41068,-0.2211 0.90036,-0.5686 1.46906,-1.0425 l 0.61605,0.853 -3.55416,2.9855 0,23.5048 1.23211,1.6587 2.03772,-1.7534 0.71083,0.7582 c -1.26373,1.0741 -2.48004,2.1957 -3.64894,3.3646 -1.16895,1.1373 -2.32208,2.3536 -3.45939,3.6489 l -0.94777,0 c -1.16895,-0.8845 -2.00615,-1.8639 -2.51161,-2.9381 -0.47391,-1.0741 -0.71085,-2.5906 -0.71084,-4.5493 l 0,-22.9836 -2.89072,-2.2747 -4.59672,3.412 c 2.21147,1.7693 3.75951,3.3331 4.64411,4.6915 0.91617,1.3269 1.37426,2.717 1.37428,4.1703 -2e-5,1.0425 -0.0632,1.7692 -0.18956,2.1798 -0.12638,0.4108 -0.34753,0.6161 -0.66344,0.6161 -0.15798,0 -0.30014,-0.063 -0.4265,-0.1896 -0.0948,-0.1263 -0.14218,-0.2527 -0.14217,-0.3791 -1e-5,-0.1895 0.079,-0.5528 0.23695,-1.0899 0.15795,-0.5687 0.23693,-1.0583 0.23694,-1.4691 -1e-5,-0.4106 -0.079,-0.8371 -0.23694,-1.2795 -0.15798,-0.4738 -0.44231,-1.0109 -0.853,-1.6112 l -1.04256,0.5687 0,15.7331" id="path2903" style="fill: #000; -inkscape-font-specification: Blackletter686 BT; font-family: Blackletter686 BT; font-size: 97.0524px; font-weight: normal"></path>
      <path d="m 196.0477,1096.1655 c 0.44228,1.3585 1.13732,2.4327 2.08511,3.2225 0.94776,0.7582 1.99031,1.1373 3.12766,1.1373 0.94776,0 1.83235,-0.2211 2.65378,-0.6634 0.85298,-0.4739 1.51642,-1.09 1.99033,-1.8482 -0.34754,0.1896 -0.64767,0.3159 -0.90039,0.3791 -0.22117,0.063 -0.42652,0.095 -0.61605,0.095 -1.10576,0 -2.11672,-0.3001 -3.03289,-0.9004 -0.88461,-0.6002 -1.7534,-1.5638 -2.60639,-2.8907 -0.4739,0.3159 -0.93199,0.6003 -1.37428,0.853 -0.4423,0.2211 -0.8846,0.4265 -1.32688,0.616 m -3.31722,25.7322 0,-24.5475 c -0.53708,0.095 -1.05836,0.1738 -1.56384,0.237 -0.47389,0.032 -0.93198,0.047 -1.37427,0.047 l 0,24.4526 -1.23211,1.1847 6.96616,5.4024 2.74855,-2.3221 -5.54449,-4.4545 m 3.60155,-1.5639 4.78627,3.649 c 0.15795,-0.1264 0.47388,-0.3791 0.94778,-0.7582 1.42165,-1.169 2.51159,-2.0062 3.26983,-2.5117 l 0.56867,0.8057 c -1.61124,1.2321 -3.25405,2.5432 -4.92844,3.9332 -1.67442,1.3585 -3.31724,2.7644 -4.92844,4.2176 l -0.99517,0 -7.39266,-5.8288 -2.51161,2.2273 -0.56867,-0.7582 4.07545,-3.6016 0,-23.884 -0.66345,0 0,-1.1847 0.75822,0 c 2.21148,0 4.35977,-0.4265 6.44489,-1.2795 2.11669,-0.8845 4.1702,-2.1956 6.16055,-3.9333 0.22113,0.2212 0.52126,0.5529 0.90039,0.9952 1.99031,2.2431 3.34879,3.3646 4.07544,3.3646 0.56864,0 1.07412,-0.3475 1.51644,-1.0425 0.44227,-0.695 0.80559,-1.7376 1.08995,-3.1277 l 1.04255,0.2843 c -0.63188,3.0014 -1.73761,5.3866 -3.31722,7.1557 -1.54806,1.7693 -3.31724,2.6538 -5.30755,2.6538 -0.9162,0 -1.80079,-0.1895 -2.65378,-0.5686 -0.82142,-0.4107 -1.61123,-0.9952 -2.36944,-1.7534 l 0,20.9458" id="path2905" style="fill: #000; -inkscape-font-specification: Blackletter686 BT; font-family: Blackletter686 BT; font-size: 97.0524px; font-weight: normal"></path>
      <path d="m 230.49939,1105.5959 2.03772,-1.4691 -5.5445,-9.5251 -1.94294,1.5638 5.44972,9.4304 m 0.28433,22.6045 1.75339,-1.7534 c -1.45328,-1.9587 -2.66959,-4.7863 -3.64894,-8.4826 -0.97939,-3.6963 -1.89557,-6.2395 -2.74855,-7.6296 l -2.03773,1.3743 c 0.50547,1.2953 1.13732,3.2382 1.89556,5.8288 1.48483,5.0864 3.08025,8.6406 4.78627,10.6625 m -9.90427,-15.7331 8.86172,-6.208 -5.63928,-9.4303 -3.22244,2.3694 0,13.2689 m -4.26499,17.2021 c -0.53709,-0.9477 -1.12155,-1.8323 -1.75339,-2.6537 -0.63186,-0.853 -1.34269,-1.6586 -2.1325,-2.4169 l -2.9855,2.6064 -0.61605,-0.853 3.88588,-3.5068 0,-44.5455 -0.75822,0.3791 -0.37911,-0.9477 c 1.83236,-0.7898 3.55416,-1.8797 5.16538,-3.2699 1.64281,-1.39 3.25403,-3.1118 4.83367,-5.1654 l 0.853,0.5687 c -0.0948,0.158 -0.25276,0.4108 -0.47389,0.7582 -0.60027,0.9795 -1.05837,1.6745 -1.37428,2.0851 l 0,25.0214 8.67216,-6.3028 6.49228,11.6577 -6.824,4.9284 c 1.04253,1.9904 2.0377,4.8179 2.9855,8.4826 0.97934,3.6648 2.0219,6.1448 3.12766,7.4401 l 2.36945,-1.6586 0.56866,0.853 c -1.42169,1.1373 -2.71699,2.2431 -3.88588,3.3172 -1.16895,1.0741 -2.2431,2.1483 -3.22245,3.2224 l -0.75822,0 c -1.99035,-2.401 -3.60157,-5.6234 -4.83366,-9.6673 -1.23213,-4.0754 -2.08513,-6.587 -2.559,-7.5348 l -2.1325,1.2795 0,8.53 1.18472,1.3743 1.46906,-1.3743 0.56866,0.853 c -1.29531,1.2005 -2.48003,2.3378 -3.55416,3.412 -1.04257,1.0741 -1.99034,2.1167 -2.84333,3.1276 l -1.08994,0 m 0.56866,-1.0899 2.27467,-2.4168 -2.17989,-2.4169 0,-47.9575 c -0.44231,0.3792 -0.91619,0.7267 -1.42167,1.0426 -0.47389,0.3159 -1.05835,0.6477 -1.75338,0.9951 l 0,45.6355 -0.56867,0.4739 c 0.88459,0.9478 1.61121,1.785 2.17989,2.5116 0.56866,0.7266 1.05834,1.4375 1.46905,2.1325" id="path2907" style="fill: #000; -inkscape-font-specification: Blackletter686 BT; font-family: Blackletter686 BT; font-size: 97.0524px; font-weight: normal"></path>
    </g>
  </g>
</svg>
