<svg xmlns="http://www.w3.org/2000/svg" version="1.1" width="261" height="87" id="svg2"><g transform="translate(0 -965.362)" id="layer1"><g transform="scale(1.0954 .91292)" id="text2816" style="font-variant:normal;fill:#000;fill-opacity:1;stroke:none;-inkscape-font-specification:Bitstream Vera Sans Bold;font-family:DejaVu Sans Mono;font-size:24.2631px;font-style:normal;font-weight:700;font-stretch:100%"><path d="M19.335 1097.255v-2.89c-3.444.032-5.813.474-7.109 1.327-1.263.821-1.974 2.274-2.132 4.36.474-.948 1.28-1.628 2.417-2.038 1.169-.443 2.764-.664 4.786-.664.221 0 .553-.016.995-.047.474-.032.821-.047 1.043-.047m13.079 10.473-11.942-31.277v31.467c1.2-.474 2.259-.822 3.175-1.043.916-.221 1.738-.332 2.464-.332.916 0 1.848.095 2.796.285.98.158 2.148.458 3.507.9m-.853-22.794 11.942 31.04-.047-31.23c-.98.411-1.96.727-2.939.948-.979.19-1.99.285-3.032.285-.917 0-1.864-.08-2.844-.237-.98-.19-2.006-.458-3.08-.806m5.213-15.354a9.144 9.144 0 0 0 2.938 2.464 7.948 7.948 0 0 0 3.601.853 7.429 7.429 0 0 0 2.986-.616 6.96 6.96 0 0 0 2.417-1.848 3.458 3.458 0 0 1-.9.19h-1.422c-.948 0-1.96-.316-3.033-.948-1.043-.632-2.29-1.674-3.744-3.128l-2.843 3.033m3.886 48.81-17.345-45.398c-2.274-5.813-4.28-9.572-6.018-11.279-1.706-1.737-3.87-2.606-6.492-2.606-2.212 0-4.123.537-5.734 1.611-1.612 1.043-2.844 2.575-3.697 4.597 1.264-1.422 2.528-2.433 3.791-3.033 1.264-.632 2.686-.947 4.265-.948 4.234 0 7.899 4.029 10.995 12.085.158.41.284.726.379.947l17.344 45.02c.126.284.3.742.521 1.374 1.327 3.665 2.907 6.208 4.74 7.63l2.132-1.754c-1.58-1.137-3.175-3.807-4.787-8.008-.031-.127-.063-.206-.094-.237m-17.913 9.999 2.796-2.322a15.377 15.377 0 0 0-4.597-2.56c-1.611-.568-3.349-.852-5.213-.852-3.886 0-7.06 1.058-9.525 3.175-2.433 2.085-3.649 4.754-3.649 8.008v.19c.474-2.654 1.69-4.692 3.649-6.113 1.99-1.422 4.55-2.133 7.677-2.133 1.422 0 2.843.221 4.265.664 1.453.41 2.985 1.058 4.597 1.943m-3.412-29.998h-2.038c-2.496 0-4.297.332-5.402.996-1.075.663-1.612 1.722-1.612 3.175v2.322H9.146v-2.701c0-4.107.758-6.95 2.275-8.53 1.516-1.612 4.154-2.417 7.914-2.417v-17.487c-1.485-4.233-2.986-7.187-4.502-8.861-1.485-1.675-3.318-2.512-5.497-2.512-2.307 0-4.202.648-5.687 1.943-1.453 1.295-2.18 2.922-2.18 4.881 0 1.295.3 2.512.9 3.649.6 1.106 1.47 2.085 2.607 2.938l-.711.758c-1.422-1.169-2.48-2.416-3.175-3.743A8.839 8.839 0 0 1 0 1068.49c0-3.032 1.185-5.623 3.554-7.771 2.401-2.18 5.324-3.27 8.767-3.27 3.19 0 5.75.837 7.677 2.511 1.927 1.675 3.997 5.403 6.208 11.184l4.692 12.321c1.295.474 2.495.838 3.601 1.09 1.106.253 2.101.38 2.986.38 1.01 0 2.006-.127 2.985-.38.98-.252 1.99-.616 3.033-1.09v-9.525c-1.453 0-2.796-.268-4.028-.806-1.232-.568-2.449-1.469-3.649-2.7l-1.753 1.279-.57-.758a32.996 32.996 0 0 0 4.124-3.981 34.017 34.017 0 0 0 3.46-4.691c2.274 2.875 3.853 4.691 4.738 5.45.885.726 1.69 1.09 2.417 1.09.884 0 1.658-.49 2.322-1.47.695-.98 1.343-2.559 1.943-4.739l1.09.284c-.853 3.255-2.006 5.782-3.46 7.583-1.453 1.769-3.285 2.89-5.497 3.364l.048 45.257c0 .032.047.126.142.284 1.327 2.59 2.4 4.17 3.222 4.739l4.265-3.791.664.758-9.668 8.767c-1.2-.885-2.306-2.07-3.317-3.554-.98-1.517-1.88-3.38-2.701-5.592l-4.17-11.515a30.127 30.127 0 0 0-3.744-1.09c-1.137-.253-2.132-.38-2.985-.38-.98 0-1.943.127-2.891.38-.948.22-1.959.584-3.033 1.09v10.283c1.58.253 3.033.71 4.36 1.374 1.327.632 2.622 1.5 3.886 2.607l3.317-2.75.569.807-9.668 8.34c-1.674-.98-3.285-1.69-4.833-2.132a15.946 15.946 0 0 0-4.692-.711c-3.064 0-5.513.821-7.345 2.464-1.833 1.643-2.749 3.807-2.749 6.492 0 3.412 1.296 6.303 3.886 8.672 2.622 2.37 6.05 3.712 10.283 4.028v.948c-4.833-.284-8.672-1.848-11.515-4.691-2.812-2.812-4.218-6.445-4.218-10.9 0-4.296 1.485-7.819 4.455-10.567 2.97-2.78 6.792-4.17 11.468-4.17h.284c.474.062.932.094 1.375.094v-20.993" id="path2895" style="fill:#000;-inkscape-font-specification:Blackletter686 BT;font-family:Blackletter686 BT;font-size:97.0524px;font-weight:400"/><path d="M65.16 1112.278c.979-.916 1.974-1.833 2.985-2.749a220.82 220.82 0 0 0 3.223-2.89l-6.208-8.057v13.696m0 8.056 4.786 3.649.948-.758c1.421-1.17 2.511-2.007 3.27-2.512l.568.806a157.693 157.693 0 0 0-4.928 3.933 124.088 124.088 0 0 0-4.929 4.217h-.995l-7.392-5.828-2.512 2.227-.569-.758 4.076-3.602v-23.884h-.664v-1.185h.758c2.212 0 4.36-.426 6.445-1.28 2.117-.884 4.17-2.195 6.16-3.932l7.867 11.041a185.103 185.103 0 0 0-6.587 5.545 136.29 136.29 0 0 0-6.302 5.829v6.492m-3.602 1.564v-24.548c-.537.095-1.058.174-1.564.237-.474.032-.932.047-1.374.047v24.453l-1.232 1.185 6.966 5.402 2.749-2.322-5.545-4.455m2.986-25.732 7.582 9.62 2.511-2.132-6.587-9.241c-.41.316-.884.616-1.421.9-.506.253-1.2.537-2.085.853" id="path2897" style="fill:#000;-inkscape-font-specification:Blackletter686 BT;font-family:Blackletter686 BT;font-size:97.0524px;font-weight:400"/><path d="M88.285 1129.67a62.015 62.015 0 0 0-6.444-5.166l-2.796 2.512-.759-.853 4.644-4.076v-22.32c-.884 0-1.816.095-2.795.284a21.26 21.26 0 0 0-3.033.759v-.759c0-1.706.49-3.27 1.469-4.691.98-1.453 2.432-2.733 4.36-3.839v-6.492l-1.09.19v-1.09c1.958-.506 3.775-1.438 5.45-2.796 1.674-1.39 3.222-3.207 4.643-5.45l.996.569a22.31 22.31 0 0 1-1.138 1.848c-.379.569-.774 1.122-1.185 1.659v12.226h1.233c1.453 0 2.764-.08 3.933-.237 1.2-.158 2.29-.395 3.27-.71 0 2.906-.695 5.054-2.085 6.444-1.359 1.39-3.476 2.085-6.35 2.085v21.325l3.08 3.033 3.412-2.796.663.758a1608.309 1608.309 0 0 1-8.53 7.582h-.948m.57-1.184 2.132-1.943-3.792-3.602v-24.452h2.891c2.148 0 3.776-.285 4.881-.853 1.106-.57 1.88-1.517 2.322-2.844-.663.221-1.39.38-2.18.474-.758.095-1.721.142-2.89.142h-5.024v-12.653c-.537.411-1.058.774-1.563 1.09-.506.285-1.011.537-1.517.759l-.047 10.804c-1.517.127-2.796.537-3.839 1.232-1.01.695-1.658 1.612-1.943 2.749.632-.253 1.406-.442 2.322-.569.917-.158 2.07-.268 3.46-.331v24.073l-1.232 1.185a156.803 156.803 0 0 1 3.743 2.89c.822.664 1.58 1.28 2.275 1.849" id="path2899" style="fill:#000;-inkscape-font-specification:Blackletter686 BT;font-family:Blackletter686 BT;font-size:97.0524px;font-weight:400"/><path d="M129.514 1069.675c-.095 0-.269.016-.522.047-.758.095-1.295.142-1.61.142a9.48 9.48 0 0 1-4.124-.947c-1.326-.632-2.827-1.706-4.502-3.223-.347-.284-.837-.71-1.469-1.28-3.696-3.285-6.808-4.928-9.335-4.928a9.217 9.217 0 0 0-3.697.758c-1.168.474-2.258 1.185-3.27 2.133a11.706 11.706 0 0 1 2.18-.71 9.828 9.828 0 0 1 2.086-.238c1.484 0 2.827.285 4.028.853 1.2.569 2.827 1.801 4.88 3.696l.57.57c3.601 3.38 6.618 5.07 9.05 5.07a8.8 8.8 0 0 0 2.891-.474c.948-.316 1.896-.806 2.844-1.47m6.018-4.833c-1.548 2.528-3.365 4.486-5.45 5.876-2.053 1.39-4.186 2.086-6.397 2.085a8.999 8.999 0 0 1-3.033-.52 10.5 10.5 0 0 1-2.701-1.422 49.694 49.694 0 0 1-4.123-3.318c-1.264-1.169-1.896-1.816-1.896-1.943 0-.316-.774-.884-2.322-1.706-1.516-.853-3-1.279-4.454-1.28-2.148.001-3.918.696-5.308 2.086-1.39 1.39-2.085 3.143-2.085 5.26 0 1.959.616 3.633 1.848 5.023 1.264 1.39 3.05 2.401 5.355 3.033l-.284.995c-2.875-.853-4.96-2.006-6.255-3.459-1.264-1.485-1.896-3.412-1.896-5.781 0-3.254 1.28-6.114 3.839-8.578 2.59-2.496 5.607-3.743 9.05-3.744 3.634 0 7.362 1.849 11.185 5.545 1.295 1.232 2.29 2.133 2.985 2.701a13.558 13.558 0 0 0 2.843 1.754c.98.442 1.817.663 2.512.663.98 0 1.943-.316 2.89-.948.949-.663 1.849-1.643 2.702-2.938l.995.616m-14.738 33.267v19.098c.38-.063.774-.19 1.185-.38.41-.189.853-.442 1.327-.758v-39.806a4.505 4.505 0 0 0-1.896 1.943c-.41.853-.616 1.895-.616 3.128v13.79c-.347 0-.695.016-1.042.047l-.522.047c-3.033 0-5.212.427-6.54 1.28-1.295.853-1.99 2.322-2.084 4.407.442-.98 1.263-1.69 2.464-2.133 1.232-.442 2.954-.663 5.165-.663h2.56m-1.28 1.184h-2.133c-2.243 0-3.886.332-4.928.996-1.043.663-1.564 1.721-1.564 3.175v2.322h-1.185v-2.701c0-4.107.727-6.967 2.18-8.578 1.485-1.611 4.028-2.417 7.63-2.417v-9.999c0-2.653.616-4.628 1.848-5.923 1.264-1.296 3.364-2.133 6.303-2.512v1.09l-.996.19v34.12c0 3.348-.568 5.686-1.706 7.013-1.105 1.295-3.175 2.227-6.208 2.796v-1.137l.759-.19v-18.245m11.136-22.51.047 39.38c.411-.094.822-.236 1.233-.426.442-.19.884-.426 1.326-.71l.048-43.503c-.853.442-1.517 1.105-1.99 1.99-.443.853-.664 1.864-.664 3.033v.237m-1.137.568c0-2.653.616-4.628 1.848-5.923 1.264-1.295 3.365-2.133 6.303-2.512v1.043l-.996.19v37.863c0 3.349-.568 5.702-1.706 7.06-1.137 1.328-3.206 2.276-6.207 2.844v-1.28l.758-.189v-39.096m2.985 51.038 2.464-2.038c-1.895-1.484-3.743-2.559-5.544-3.222-1.77-.695-3.649-1.043-5.64-1.043-2.337 0-4.375.427-6.112 1.28-1.706.853-3.318 2.243-4.834 4.17l.284.19a14.282 14.282 0 0 1 4.076-2.228c1.484-.537 2.97-.805 4.454-.805 1.833 0 3.539.268 5.118.805 1.611.506 3.523 1.47 5.734 2.891m13.032 22.036.19.284c1.105-.568 1.895-1.295 2.37-2.18.473-.853.71-1.974.71-3.364 0-.853-.221-1.77-.663-2.749-.411-.98-1.059-2.006-1.943-3.08l-.38.237c.506 1.137.87 2.196 1.09 3.175.253.98.38 1.927.38 2.843 0 .853-.143 1.659-.427 2.417-.284.79-.727 1.595-1.327 2.417m-1.753-42.982h-3.223v6.303h3.223v-6.303m0-8.577-1.754-1.517-1.469 1.138v7.772h3.223v-7.393m4.265 26.111v-25.21l1.232-1.328a8.496 8.496 0 0 1-2.085-.9c-.664-.442-1.58-1.216-2.749-2.322l-1.516 1.422 2.038 1.943v28.622c.347-.347.758-.679 1.232-.995.473-.347 1.09-.758 1.848-1.232m-7.677-57.056c.41-.19.774-.332 1.09-.426.316-.095.632-.143.948-.143.79 0 1.548.253 2.274.759.758.474 1.532 1.216 2.322 2.227l1.422 2.038a9.685 9.685 0 0 0 1.564-1.185c.474-.442.9-.916 1.28-1.422-1.233-1.706-2.323-2.89-3.27-3.554-.917-.663-1.896-.995-2.939-.995-1.01 0-1.911.221-2.7.663-.76.443-1.423 1.122-1.991 2.038m-.948 54.734v-52.507c0-2.4.616-4.312 1.848-5.734 1.232-1.421 2.875-2.132 4.929-2.132 1.105 0 2.18.332 3.222.995 1.074.632 2.559 1.959 4.455 3.98l2.132-2.416.758.758c-1.674 1.99-3.222 3.68-4.644 5.07-1.39 1.39-2.685 2.512-3.886 3.365l-2.037-2.985c-.632-.853-1.296-1.501-1.99-1.943-.696-.474-1.36-.711-1.991-.711-.221 0-.458.047-.71.142-.222.095-.538.284-.949.569v27.96l6.114-5.356a25.244 25.244 0 0 0 2.132 2.654c.758.79 1.58 1.485 2.464 2.085a8.409 8.409 0 0 0 1.848-.569 7.615 7.615 0 0 0 1.612-1.09l.426.996-3.791 2.606v24.974h1.659v1.137c-2.78.411-4.992 1.359-6.635 2.844-1.611 1.484-2.417 3.254-2.417 5.307 0 1.738 1.248 3.775 3.744 6.113 2.496 2.338 3.744 4.47 3.744 6.398 0 1.706-.774 3.222-2.322 4.55-1.517 1.326-3.665 2.337-6.445 3.032l-.38-.948c1.39-.884 2.37-1.8 2.939-2.748.568-.948.853-2.101.853-3.46 0-1.327-.553-3.317-1.659-5.97-1.106-2.623-1.658-4.755-1.658-6.398 0-.632.079-1.327.237-2.085.19-.758.442-1.58.758-2.464v-13.79h-3.223v6.729h.9v.947l-8.861 7.298c-2.211-1.485-4.154-2.511-5.829-3.08-1.643-.6-3.349-.9-5.118-.9-3.254 0-5.94.963-8.056 2.89-2.085 1.959-3.128 4.486-3.128 7.583 0 3.538 1.217 6.397 3.65 8.577 2.432 2.211 5.75 3.46 9.951 3.744v.995c-4.834-.348-8.53-1.754-11.089-4.218-2.559-2.432-3.838-5.781-3.838-10.046 0-4.55 1.516-8.325 4.549-11.326 3.064-3.001 6.887-4.502 11.468-4.502 2.148 0 4.233.395 6.255 1.185 2.054.79 4.107 2.006 6.16 3.649l1.849-1.754" id="path2901" style="fill:#000;-inkscape-font-specification:Blackletter686 BT;font-family:Blackletter686 BT;font-size:97.0524px;font-weight:400"/><path d="M164.581 1123.746v-16.207l-3.222.095v15.828l-.474.474c.758.79 1.422 1.563 1.99 2.322.57.726 1.106 1.5 1.612 2.322l2.227-2.417-2.133-2.417m-.094-24.074 3.175-2.227a11.966 11.966 0 0 1-3.033-.853c-.916-.41-1.8-.98-2.654-1.706l-2.038 1.47 4.55 3.316m12.036 23.458v-23.173l2.038-2.133h-.284c-.916 0-1.817-.237-2.701-.71-.885-.474-1.864-1.248-2.938-2.323l-1.943 1.47 3.127 2.322v24.263c0 1.326.19 2.432.569 3.317.38.884.995 1.658 1.848 2.322l2.607-2.512-2.323-2.843m-8.34-.853 1.137 1.374 1.375-1.374.568.758c-.758.758-1.58 1.596-2.464 2.512-.885.884-2.164 2.259-3.838 4.123h-1.043a19.569 19.569 0 0 0-1.8-2.654 21.589 21.589 0 0 0-2.086-2.417l-3.128 2.606-.568-.853 3.98-3.506v-15.212h-.853v-.9h.948c1.77 0 3.333-.127 4.692-.38 1.39-.252 2.606-.632 3.649-1.137-.537-.821-1.406-1.753-2.607-2.796-1.2-1.043-3.633-2.875-7.298-5.497v-.948l6.019-4.55a32.868 32.868 0 0 1 1.753 1.944c1.264 1.516 2.259 2.322 2.986 2.417l5.45-4.36c.758.632 1.658 1.548 2.7 2.748 1.043 1.2 1.896 1.801 2.56 1.801.379 0 .774-.095 1.184-.284.411-.221.9-.569 1.47-1.043l.615.853-3.554 2.986v23.505l1.232 1.658 2.038-1.753.71.758a61.317 61.317 0 0 0-3.648 3.365 64.017 64.017 0 0 0-3.46 3.649h-.947c-1.17-.885-2.006-1.864-2.512-2.939-.474-1.074-.71-2.59-.71-4.549V1099.2l-2.891-2.275-4.597 3.412c2.211 1.77 3.76 3.333 4.644 4.691.916 1.327 1.374 2.717 1.374 4.17 0 1.043-.063 1.77-.19 2.18-.126.411-.347.617-.663.617a.588.588 0 0 1-.426-.19.63.63 0 0 1-.142-.38c0-.189.079-.552.237-1.089.158-.569.237-1.058.237-1.47 0-.41-.08-.836-.237-1.279-.158-.473-.443-1.01-.853-1.61l-1.043.568v15.733" id="path2903" style="fill:#000;-inkscape-font-specification:Blackletter686 BT;font-family:Blackletter686 BT;font-size:97.0524px;font-weight:400"/><path d="M196.048 1096.166c.442 1.358 1.137 2.432 2.085 3.222.948.758 1.99 1.137 3.127 1.137.948 0 1.833-.22 2.654-.663.853-.474 1.517-1.09 1.99-1.848-.347.19-.647.316-.9.379a2.26 2.26 0 0 1-.616.095c-1.106 0-2.117-.3-3.033-.9-.884-.6-1.753-1.564-2.606-2.891-.474.316-.932.6-1.374.853a24.9 24.9 0 0 1-1.327.616m-3.318 25.732v-24.548c-.537.095-1.058.174-1.563.237-.474.032-.932.047-1.375.047v24.453l-1.232 1.185 6.966 5.402 2.749-2.322-5.545-4.454m3.602-1.564 4.786 3.649.948-.759c1.422-1.169 2.512-2.006 3.27-2.511l.569.805a157.697 157.697 0 0 0-4.929 3.934 124.083 124.083 0 0 0-4.928 4.217h-.995l-7.393-5.829-2.512 2.228-.568-.758 4.075-3.602v-23.884h-.663v-1.185h.758c2.211 0 4.36-.426 6.445-1.28 2.116-.884 4.17-2.195 6.16-3.933.221.222.522.553.9.996 1.99 2.243 3.35 3.364 4.076 3.364.569 0 1.074-.347 1.517-1.042.442-.695.805-1.738 1.09-3.128l1.042.284c-.632 3.002-1.738 5.387-3.317 7.156-1.548 1.77-3.317 2.654-5.308 2.654-.916 0-1.8-.19-2.654-.569-.821-.41-1.61-.995-2.369-1.753v20.946" id="path2905" style="fill:#000;-inkscape-font-specification:Blackletter686 BT;font-family:Blackletter686 BT;font-size:97.0524px;font-weight:400"/><path d="m230.5 1105.596 2.037-1.47-5.544-9.524-1.943 1.563 5.45 9.43m.284 22.605 1.753-1.753c-1.453-1.959-2.67-4.786-3.649-8.483-.98-3.696-1.895-6.24-2.748-7.63l-2.038 1.375c.505 1.295 1.137 3.238 1.895 5.829 1.485 5.086 3.08 8.64 4.787 10.662m-9.905-15.733 8.862-6.208-5.64-9.43-3.222 2.37v13.268m-4.265 17.202a22.705 22.705 0 0 0-1.753-2.653 19.156 19.156 0 0 0-2.132-2.417l-2.986 2.606-.616-.853 3.886-3.507V1078.3l-.758.379-.38-.948c1.833-.79 3.555-1.88 5.166-3.27 1.643-1.39 3.254-3.111 4.834-5.165l.853.569c-.095.158-.253.41-.474.758-.6.98-1.059 1.674-1.375 2.085v25.021l8.673-6.302 6.492 11.657-6.824 4.929c1.042 1.99 2.038 4.818 2.985 8.482.98 3.665 2.022 6.145 3.128 7.44l2.37-1.658.568.853a74.903 74.903 0 0 0-3.886 3.317 51.636 51.636 0 0 0-3.222 3.222h-.758c-1.99-2.4-3.602-5.623-4.834-9.667-1.232-4.075-2.085-6.587-2.56-7.535l-2.132 1.28v8.53l1.185 1.374 1.47-1.374.568.853c-1.295 1.2-2.48 2.338-3.554 3.412a60.877 60.877 0 0 0-2.844 3.127h-1.09m.57-1.09 2.274-2.416-2.18-2.417v-47.958c-.442.38-.916.727-1.422 1.043-.474.316-1.058.648-1.753.995v45.636l-.569.473a39.13 39.13 0 0 1 2.18 2.512 19.93 19.93 0 0 1 1.47 2.133" id="path2907" style="fill:#000;-inkscape-font-specification:Blackletter686 BT;font-family:Blackletter686 BT;font-size:97.0524px;font-weight:400"/></g></g></svg>